<svg id="Layer_1" data-name="Layer 1" xmlns="http://www.w3.org/2000/svg" viewBox="0 0 153.96 153.96"><defs><style>.cls-1{fill:#f6f5ef;}.cls-2{fill:#fadd3e;}.cls-3{fill:red;}</style></defs><circle class="cls-1" cx="76.98" cy="78.3" r="75.65"/><circle class="cls-2" cx="72.19" cy="71.15" r="27.9"/><path d="M97.71,84.35c1.33-1.12,2-2.6,4.37-2.94a6,6,0,0,1,5,2.75,6.72,6.72,0,0,1-.23,5.9c-2.18,3.13-5.15,5.57-8.08,8A3,3,0,0,1,94.69,98,63.65,63.65,0,0,1,88,91.06c-2.31-2.59-2.32-5.8,0-7.94,2.47-2.3,4.68-2,7.59,0A16.29,16.29,0,0,0,97.71,84.35ZM96.54,96.4a92.66,92.66,0,0,0,7.63-7.14c2.22-2.35.57-4.3.57-4.3s-1.93-2.5-4.52.35c-2,2-3.14,2.24-5.77-.1-2.34-2.06-4.2-.86-4.62-.23a3.32,3.32,0,0,0,.36,4.48A69.18,69.18,0,0,0,96.54,96.4Z"/><path d="M96.37,105c-4.56,0-9.13-.12-13.68,0-4.86.17-7.5-1.86-8.2-6.8-1-7.46-2.58-14.86-3.5-22.34-.44-3.6-1.92-4.82-5.39-4.47a56.49,56.49,0,0,1-7.36,0c-1.07,0-2.17-.41-2.16-1.75S57.27,68,58.29,68c4,0,8.06,0,12.08.17.9,0,2.42.87,2.53,1.53,1.08,6.3,5.89,4.44,9.78,4.73,1.58.12,4.2-.74,4.26,1.67s-2.56,1.74-4.17,1.8c-8,.3-8.07-1-7.21,7.08.9,4.79,1.26,12.32,4.71,15.34,3.85,2.65,8.85,2,14,2,5.32,0,10.67-.35,15.93-.34,2.65,0,4.08-1.57,4.72-4.39,1.2-5.3,2.63-10.54,4.09-15.77.72-2.59,0-3.46-2.71-3.45-4.91,0-9.81-.26-14.71-.4-1.29,0-2.74-.17-2.8-1.7s1.44-1.76,2.69-1.76c6.14,0,12.28,0,18.41.19,3.12.11,4.28,2.17,3.56,5.11-1.73,7-3.48,13.94-5.38,20.87-.94,3.39-3.64,4.47-6.93,4.46-4.91,0-9.82,0-14.73,0Z"/><path d="M106.94,122.32a6.86,6.86,0,0,1-6.77-7.23,7,7,0,0,1,7.3-6.77,7.18,7.18,0,0,1,6.82,7.29A7.06,7.06,0,0,1,106.94,122.32Zm3.58-7.32c-.32-1.93-1.49-3.2-3.5-3.07a3.16,3.16,0,0,0-3.17,3.49c.08,2,1.26,3.36,3.38,3.11A3.43,3.43,0,0,0,110.52,115Z"/><path d="M85,122.33a7,7,0,1,1,0-14,7,7,0,0,1,0,14Zm0-10.5c-1.92.26-3.23,1.27-3.37,3.31a3,3,0,0,0,3.08,3.46,3.25,3.25,0,0,0,3.52-3.2C88.33,113.36,87,112.27,85,111.83Z"/><rect x="89.74" y="74.64" width="7.2" height="3.16" rx="0.83"/><path class="cls-3" d="M96.54,96.35a92.66,92.66,0,0,0,7.63-7.14c2.22-2.35.57-4.3.57-4.3s-1.93-2.5-4.52.35c-2,2-3.14,2.24-5.77-.1-2.34-2.06-4.2-.86-4.62-.23a3.32,3.32,0,0,0,.36,4.48A69.18,69.18,0,0,0,96.54,96.35Z"/></svg>